<?xml version="1.0" encoding="UTF-8"?><svg id="Layer_3" xmlns="http://www.w3.org/2000/svg" xmlns:xlink="http://www.w3.org/1999/xlink" viewBox="0 0 512 512"><defs><clipPath id="clippath"><rect width="512" height="512" style="fill:#7ab6d3;"/></clipPath><clipPath id="clippath-1"><path d="M406.01,411.3h-18.21v-158.59c0-58.58-31.94-109.7-79.33-136.93l-67.84-41.96-21.6,34.44-54.6-38.08s0,30.94,3.16,62.22c-12.05,34.29-75.55,137.79-75.55,137.79l16.19,54.45h37.59c.65-6.39,5.43-11.86,12.05-13.12.93-.17,1.84-.26,2.75-.26,3.25,0,6.32,1.06,8.83,2.92l20.05-21.69c-1.12-1.63-1.91-3.5-2.28-5.56-1.51-8.07,3.79-15.85,11.88-17.38,4.74-.89,9.37.58,12.71,3.61.02,0,.03.02.05.03l.17-.15,13.87-7.45c-.1-.33-.17-.67-.24-1.01-.31-1.65-.33-3.3-.1-4.88.88-6.13,5.55-11.3,11.98-12.5.27-.05.55-.1.82-.12.64-.09,1.27-.14,1.89-.14l.45-2.16,4.81-23.2.96-.55c-.26-.12-.52-.29-.76-.46-3.21-2.13-5.58-5.51-6.35-9.62-1.51-8.07,3.81-15.85,11.88-17.36,3.06-.58,6.06-.17,8.71,1l24.74-22.85c-.41-.96-.72-1.96-.93-3.02-1.51-8.07,3.81-15.85,11.88-17.36,8.09-1.53,15.87,3.79,17.38,11.86,1.51,8.09-3.79,15.87-11.88,17.38-3.18.6-6.32.14-9.05-1.15l-24.54,22.66c.48,1.05.84,2.18,1.06,3.37.7,3.76-.07,7.45-1.92,10.47-2.11,3.49-5.63,6.08-9.96,6.89-.21.03-.39.07-.6.09l-1.72,8.34-4.07,19.63-.64,3.07c.43-.82.86-1.63,1.27-2.47,1.96,2.03,3.37,4.62,3.93,7.59,1.51,8.09-3.81,15.87-11.88,17.38-2.78.52-5.55.22-8.02-.7-.98-.38-1.92-.86-2.8-1.43l-15.57,8.36c.79,7.62-4.4,14.7-12.05,16.12-2.13.39-4.24.33-6.22-.15l-23.09,24.95c.62,3.54-.07,7.01-1.72,9.89,2.56,4.65,3.66,10.39,1.44,17.2-.02.03-.02.05-.03.09-5.85,14.15-9.7,29.31-11.23,45.17-.48,5.05-.74,10.16-.74,15.34h-13.91c-7.67,0-13.94,6.27-13.94,13.94v2.66c0,7.67,6.27,13.94,13.94,13.94h256.91c7.67,0,13.94-6.27,13.94-13.94v-2.66c0-7.67-6.27-13.94-13.94-13.94Z" style="fill:#fffffd;"/></clipPath><clipPath id="clippath-2"><path d="M158.7,212.01c-5.2-3-7.01-9.7-4-14.9l12.33-21.36c3-5.2,9.72-7.01,14.9-4l2.63,1.51c5.19,3,6.99,9.72,3.98,14.9l-12.33,21.36c-3,5.2-9.7,7.01-14.9,4l-2.61-1.51Z" style="clip-path:url(#clippath-1); fill:#fffffd;"/></clipPath></defs><g id="Layer_1"><rect width="512" height="512" style="fill:#7ab6d3;"/><g style="clip-path:url(#clippath);"><polygon points="592.35 730.17 141.88 438.96 196.22 378.35 108.24 324.63 167.6 132.39 334.31 150.19 295.51 107.45 596.84 302.25 592.35 730.17" style="fill:#3c80ad;"/></g><path d="M406.01,411.3h-18.21v-158.59c0-58.58-31.94-109.7-79.33-136.93l-67.84-41.96-21.6,34.44-54.6-38.08s0,30.94,3.16,62.22c-12.05,34.29-75.55,137.79-75.55,137.79l16.19,54.45h37.59c.65-6.39,5.43-11.86,12.05-13.12.93-.17,1.84-.26,2.75-.26,3.25,0,6.32,1.06,8.83,2.92l20.05-21.69c-1.12-1.63-1.91-3.5-2.28-5.56-1.51-8.07,3.79-15.85,11.88-17.38,4.74-.89,9.37.58,12.71,3.61.02,0,.03.02.05.03l.17-.15,13.87-7.45c-.1-.33-.17-.67-.24-1.01-.31-1.65-.33-3.3-.1-4.88.88-6.13,5.55-11.3,11.98-12.5.27-.05.55-.1.82-.12.64-.09,1.27-.14,1.89-.14l.45-2.16,4.81-23.2.96-.55c-.26-.12-.52-.29-.76-.46-3.21-2.13-5.58-5.51-6.35-9.62-1.51-8.07,3.81-15.85,11.88-17.36,3.06-.58,6.06-.17,8.71,1l24.74-22.85c-.41-.96-.72-1.96-.93-3.02-1.51-8.07,3.81-15.85,11.88-17.36,8.09-1.53,15.87,3.79,17.38,11.86,1.51,8.09-3.79,15.87-11.88,17.38-3.18.6-6.32.14-9.05-1.15l-24.54,22.66c.48,1.05.84,2.18,1.06,3.37.7,3.76-.07,7.45-1.92,10.47-2.11,3.49-5.63,6.08-9.96,6.89-.21.03-.39.07-.6.09l-1.72,8.34-4.07,19.63-.64,3.07c.43-.82.86-1.63,1.27-2.47,1.96,2.03,3.37,4.62,3.93,7.59,1.51,8.09-3.81,15.87-11.88,17.38-2.78.52-5.55.22-8.02-.7-.98-.38-1.92-.86-2.8-1.43l-15.57,8.36c.79,7.62-4.4,14.7-12.05,16.12-2.13.39-4.24.33-6.22-.15l-23.09,24.95c.62,3.54-.07,7.01-1.72,9.89,2.56,4.65,3.66,10.39,1.44,17.2-.02.03-.02.05-.03.09-5.85,14.15-9.7,29.31-11.23,45.17-.48,5.05-.74,10.16-.74,15.34h-13.91c-7.67,0-13.94,6.27-13.94,13.94v2.66c0,7.67,6.27,13.94,13.94,13.94h256.91c7.67,0,13.94-6.27,13.94-13.94v-2.66c0-7.67-6.27-13.94-13.94-13.94Z" style="fill:#fffffd;"/><path d="M158.7,212.01c-5.2-3-7.01-9.7-4-14.9l12.33-21.36c3-5.2,9.72-7.01,14.9-4l2.63,1.51c5.19,3,6.99,9.72,3.98,14.9l-12.33,21.36c-3,5.2-9.7,7.01-14.9,4l-2.61-1.51Z" style="fill:#fffffd;"/><g style="clip-path:url(#clippath-2);"><polygon points="83.7 494.19 320.27 126.17 551.87 275.04 304.14 660.41 83.7 494.19" style="fill:#f7f7f7;"/></g></g></svg>